HIERARCHY
ROOT Hips
{
	OFFSET -3.958830 18.904000 13.208200
	CHANNELS 6 Xposition Yposition Zposition Zrotation Yrotation Xrotation 
	JOINT LHipJoint
	{
		OFFSET 0.000000 0.000000 0.000000
		CHANNELS 3 Zrotation Yrotation Xrotation
		JOINT LeftUpLeg
		{
			OFFSET 1.800000 -1.400000 0.085000
			CHANNELS 3 Zrotation Yrotation Xrotation
			JOINT LeftLeg
			{
				OFFSET 2.215000 -6.000000 0.000000
				CHANNELS 3 Zrotation Yrotation Xrotation
				JOINT LeftFoot
				{
					OFFSET 2.500000 -6.900000 0.000000
					CHANNELS 3 Zrotation Yrotation Xrotation
					JOINT LeftToeBase
					{
						OFFSET 0.200000 -0.500000 1.950000
						CHANNELS 3 Zrotation Yrotation Xrotation
						End Site
						{
							OFFSET 0.000000 0.000000 0.000000
						}
					}
				}
			}
		}
	}
	JOINT RHipJoint
	{
		OFFSET 0.000000 0.000000 0.000000
		CHANNELS 3 Zrotation Yrotation Xrotation
		JOINT RightUpLeg
		{
			OFFSET -1.800000 -1.400000 0.085000
			CHANNELS 3 Zrotation Yrotation Xrotation
			JOINT RightLeg
			{
				OFFSET -2.215000 -6.000000 0.000000
				CHANNELS 3 Zrotation Yrotation Xrotation
				JOINT RightFoot
				{
					OFFSET -2.500000 -6.900000 0.000000
					CHANNELS 3 Zrotation Yrotation Xrotation
					JOINT RightToeBase
					{
						OFFSET -0.200000 -0.500000 1.950000
						CHANNELS 3 Zrotation Yrotation Xrotation
						End Site
						{
							OFFSET 0.000000 0.000000 0.000000
						}
					}
				}
			}
		}
	}
	JOINT LowerBack
	{
		OFFSET 0.000000 0.000000 0.000000
		CHANNELS 3 Zrotation Yrotation Xrotation
		JOINT Spine
		{
			OFFSET -0.087000 1.940000 -0.288900
			CHANNELS 3 Zrotation Yrotation Xrotation
			JOINT Spine1
			{
				OFFSET 0.000000 1.950000 0.060000
				CHANNELS 3 Zrotation Yrotation Xrotation
				JOINT Neck
				{
					OFFSET 0.000000 0.000000 0.000000
					CHANNELS 3 Zrotation Yrotation Xrotation
					JOINT Neck1
					{
						OFFSET 0.000000 1.600000 0.340000
						CHANNELS 3 Zrotation Yrotation Xrotation
						JOINT Head
						{
							OFFSET 0.000000 1.667000 -0.240000
							CHANNELS 3 Zrotation Yrotation Xrotation
							End Site
							{
								OFFSET 0.000000 0.000000 0.000000
							}
						}
					}
				}
				JOINT LeftShoulder
				{
					OFFSET 0.000000 0.000000 0.000000
					CHANNELS 3 Zrotation Yrotation Xrotation
					JOINT LeftArm
					{
						OFFSET 2.700000 1.550000 -0.730000
						CHANNELS 3 Zrotation Yrotation Xrotation
						JOINT LeftForeArm
						{
							OFFSET 5.450000 0.000000 0.000000
							CHANNELS 3 Zrotation Yrotation Xrotation
							JOINT LeftHand
							{
								OFFSET 3.450000 0.000000 0.000000
								CHANNELS 3 Zrotation Yrotation Xrotation
								JOINT LeftHandIndex1
								{
									OFFSET 0.750000 0.000000 0.000000
									CHANNELS 3 Zrotation Yrotation Xrotation
									End Site
									{
										OFFSET 0.000000 0.000000 0.000000
									}
								}
							}
						}
					}
				}
				JOINT RightShoulder
				{
					OFFSET 0.000000 0.000000 0.000000
					CHANNELS 3 Zrotation Yrotation Xrotation
					JOINT RightArm
					{
						OFFSET -2.700000 1.550000 -0.730000
						CHANNELS 3 Zrotation Yrotation Xrotation
						JOINT RightForeArm
						{
							OFFSET -5.450000 0.000000 0.000000
							CHANNELS 3 Zrotation Yrotation Xrotation
							JOINT RightHand
							{
								OFFSET -3.450000 0.000000 0.000000
								CHANNELS 3 Zrotation Yrotation Xrotation
								JOINT RightHandIndex1
								{
									OFFSET -0.750000 0.000000 0.000000
									CHANNELS 3 Zrotation Yrotation Xrotation
									End Site
									{
										OFFSET 0.000000 0.000000 0.000000
									}
								}
							}
						}
					}
				}
			}
		}
	}
}
MOTION
Frames: 7
Frame Time: 0.016667
-10.746620 17.009490 0.666450 -3.103056 1.883530 -0.370282 -15.099599 14.379219 3.354092 5.276658 -3.049924 -10.847269 -8.919725 9.874153 30.601287 -0.562346 7.008016 2.153385 0.394770 -0.268720 0.371620 18.080537 -10.897612 2.660458 -1.881038 1.324274 -12.318780 0.458482 -4.218883 18.656358 -0.182648 -3.027909 3.488325 0.026460 0.335350 0.104950 -3.436246 -3.621302 -7.877249 11.222429 -4.541154 17.001029 -3.433187 -1.421985 -8.878025 1.098955 -6.813446 -11.510995 -16.981390 15.133408 41.547411 15.614470 4.113830 -12.618820 -18.510052 -2.394391 2.698350 -24.317080 4.612880 -1.054881 13.803204 -5.097346 -1.512992 -3.812313 2.513424 1.140130 -0.037910 -0.109840 0.096540 17.151660 7.122005 6.368090 16.456914 -2.590048 -4.366843 -15.774915 4.279609 0.034263 2.206802 -0.972647 -0.603970 0.399230 0.170430 -0.477290 
-10.756470 17.027330 0.719830 -2.900464 -1.650610 -1.021736 -15.081947 14.414313 3.324743 5.124367 -2.648713 -10.653406 -8.833352 9.379303 28.348434 -0.624931 6.611775 2.283753 0.425400 -0.234670 0.414190 18.089145 -10.931295 2.675835 -1.841506 1.265535 -11.609408 0.214454 -4.160870 18.584882 -0.219288 -3.048420 3.462872 0.032280 0.297300 0.124750 -3.379734 -3.609239 -7.850829 10.786810 -3.642909 17.443859 -3.258394 -0.585487 -8.406739 1.115104 -6.931965 -11.585759 -17.685995 15.808430 42.138180 15.255920 4.946280 -13.451270 -18.522519 -2.367288 2.517077 -24.738250 3.763480 -1.247262 11.033833 -8.967382 -1.832074 -3.759241 2.520563 1.154590 -0.057400 -0.071500 0.087680 17.213570 7.289509 6.569444 17.097565 -3.038659 -4.401829 -15.563127 4.850157 0.011559 2.204621 -0.974366 -0.577830 0.379810 0.152350 -0.484530 
-10.767060 17.039210 0.750240 -2.564610 -4.344068 -1.848599 -15.097827 14.509509 3.297306 4.725920 -2.389067 -10.756141 -7.794903 8.450564 26.078115 -0.741931 6.097062 2.455320 0.444280 -0.227040 0.450700 18.056349 -10.949243 2.702659 -1.818209 1.099823 -10.521780 -0.056242 -4.111173 18.089011 -0.253232 -3.067911 3.448827 0.029610 0.250880 0.140350 -3.237870 -3.733103 -7.858060 9.711280 -2.925630 18.442823 -2.788163 0.079825 -8.046129 1.383903 -6.751512 -11.856131 -17.723448 16.114462 42.993233 14.175030 5.910760 -14.296090 -18.697895 -2.895636 2.526083 -24.888413 3.397606 -1.737393 8.143393 -14.738875 -2.049161 -3.685749 2.543335 1.191020 -0.075880 -0.040870 0.075880 17.031104 7.869116 6.965297 17.996466 -3.368336 -4.442548 -15.180542 5.182618 0.033399 2.185872 -0.973958 -0.571120 0.354110 0.144710 -0.513300 
-10.773200 17.042570 0.767240 -2.415011 -6.731373 -2.731543 -15.082063 14.523601 3.243607 4.360078 -2.318147 -11.395670 -6.449137 7.570366 24.568709 -0.857961 5.684449 2.599434 0.453450 -0.223310 0.455910 18.077569 -10.976802 2.707399 -1.503959 1.015721 -9.778326 -0.433340 -4.124644 18.708078 -0.275492 -3.185325 3.394726 0.044270 0.253810 0.153450 -3.229075 -3.731533 -7.779659 9.354832 -2.510143 19.129663 -2.826297 0.447651 -6.275703 1.271576 -6.919248 -11.877174 -18.085116 16.496389 41.679935 13.634300 6.453470 -14.665780 -19.035547 -3.932085 2.490761 -24.778714 1.877490 -2.096145 5.550386 -19.752434 -2.069528 -3.650876 2.590811 1.193410 -0.068830 -0.045260 0.076160 17.565997 8.820527 7.376634 18.398713 -3.611374 -4.537500 -15.237722 6.004375 -0.094325 2.151837 -1.003977 -0.577760 0.350490 0.152450 -0.520830 
-10.779930 17.051760 0.785890 -1.736211 -8.541934 -3.692754 -15.094317 14.543586 3.239187 3.774049 -2.359186 -12.042969 -5.367111 6.862501 23.217211 -0.954262 5.337455 2.727817 0.443230 -0.252880 0.476070 18.062171 -11.004333 2.689460 -1.904023 0.778544 -8.682273 -0.438651 -4.204229 18.602327 -0.275239 -3.273655 3.361512 0.044730 0.249740 0.132550 -3.142927 -3.784061 -7.746492 7.964888 -2.038577 19.822312 -2.358163 0.751389 -5.046108 1.052441 -7.025046 -12.072310 -18.445709 16.627907 40.915437 13.165690 6.698610 -14.468950 -19.187131 -5.071863 2.583731 -23.991381 1.236270 -2.775286 0.965432 -27.285366 -1.482677 -3.594652 2.650874 1.195860 -0.070440 -0.068740 0.056210 18.256415 9.910686 7.931728 18.626311 -3.957425 -4.491036 -15.195368 5.827915 -0.084561 2.148321 -1.014817 -0.605260 0.355660 0.162600 -0.544540 
-10.786450 17.061440 0.804460 -1.157954 -10.718106 -4.546395 -15.105484 14.530921 3.244788 3.771069 -2.146771 -12.238458 -5.393787 6.381476 20.360646 -1.061697 4.998208 2.877241 0.421270 -0.281980 0.477650 18.051341 -11.013384 2.684278 -2.108450 0.612453 -7.575037 -0.482249 -4.257430 18.384415 -0.284615 -3.353422 3.351431 0.048720 0.276280 0.109090 -3.056524 -3.797167 -7.739128 6.750660 -1.367774 20.441618 -1.857111 1.284050 -4.191558 0.793437 -6.861113 -11.969203 -18.190253 16.682442 40.940798 12.693290 7.124850 -14.803250 -19.270209 -5.720007 2.436476 -22.860830 0.244881 -2.976205 -4.506924 -33.164113 -0.131269 -3.588497 2.666676 1.216500 -0.055510 -0.087050 0.049020 18.871083 10.402374 8.108297 19.081199 -3.845736 -4.609060 -15.852332 6.049646 -0.143674 2.114722 -1.001643 -0.653750 0.402990 0.181540 -0.564380 
-10.776020 17.062150 0.827780 -1.172086 -12.146325 -5.200540 -15.090449 14.479471 3.236545 4.091758 -1.897300 -12.291870 -5.205440 5.662269 16.436719 -1.157906 4.581358 3.030135 0.430190 -0.292900 0.498630 18.077122 -10.998850 2.702047 -2.027740 0.419305 -6.304005 -0.222108 -4.406858 17.994787 -0.324902 -3.459711 3.287125 0.049300 0.266390 0.143090 -3.086396 -3.775056 -7.725405 6.974853 -1.276343 20.755916 -2.085014 1.448745 -3.081734 0.638950 -6.845161 -11.856541 -18.268047 16.674664 40.813295 12.263940 7.337200 -15.478490 -19.540865 -6.338998 2.262430 -21.676045 -0.766031 -3.115492 -9.868763 -39.144525 1.729552 -3.581105 2.772611 1.234410 -0.058510 -0.074490 0.037980 19.302843 10.797506 8.279959 19.444567 -3.777904 -4.699304 -16.439317 6.209203 -0.183449 2.103610 -1.026409 -0.650680 0.384090 0.194310 -0.576430 
